<svg width="13" height="13" viewBox="0 0 13 13" fill="none" xmlns="http://www.w3.org/2000/svg">
<path d="M12.1428 5.32083C12.4417 4.43559 12.3387 3.46585 11.8607 2.66065C11.1419 1.42562 9.69675 0.790233 8.28539 1.08924C7.65752 0.391287 6.75545 -0.00562732 5.80974 6.02982e-05C4.36708 -0.00318977 3.08706 0.91333 2.64323 2.2678C1.71645 2.45508 0.916489 3.0275 0.448367 3.8388C-0.275842 5.07057 -0.110743 6.6233 0.85679 7.67957C0.557884 8.56481 0.660813 9.53454 1.13882 10.3397C1.85767 11.5748 3.3028 12.2102 4.71416 11.9112C5.34162 12.6091 6.2441 13.006 7.18981 12.9999C8.63329 13.0036 9.91373 12.0863 10.3576 10.7306C11.2843 10.5433 12.0843 9.97087 12.5524 9.15957C13.2758 7.92779 13.1103 6.37629 12.1432 5.32002L12.1428 5.32083ZM7.19063 12.1504C6.613 12.1513 6.05347 11.9518 5.61006 11.5866C5.63023 11.576 5.66523 11.5569 5.68787 11.5431L8.31133 10.0481C8.44555 9.9729 8.52789 9.83193 8.52707 9.67958V6.03016L9.63582 6.66189C9.64776 6.66758 9.65558 6.67895 9.65723 6.69195V9.71411C9.65558 11.058 8.55259 12.1476 7.19063 12.1504ZM1.88608 9.9148C1.59664 9.4216 1.49248 8.8435 1.5917 8.28246C1.61105 8.29383 1.64523 8.31455 1.66952 8.32836L4.29297 9.8234C4.42596 9.90018 4.59065 9.90018 4.72404 9.8234L7.92678 7.99848V9.26194C7.92761 9.27495 7.92143 9.28754 7.91114 9.29566L5.25927 10.8065C4.07806 11.4777 2.56912 11.0787 1.88608 9.9148ZM1.19563 4.26415C1.48383 3.77014 1.93878 3.39232 2.4806 3.1961C2.4806 3.21844 2.47936 3.25785 2.47936 3.28547V6.27594C2.47854 6.42788 2.56088 6.56886 2.69469 6.64401L5.89743 8.46852L4.78868 9.10025C4.77756 9.10757 4.76357 9.10879 4.75121 9.1035L2.09894 7.59141C0.920194 6.91783 0.515889 5.42971 1.19522 4.26456L1.19563 4.26415ZM10.3053 6.35598L7.10253 4.53106L8.21128 3.89974C8.2224 3.89242 8.23639 3.89121 8.24875 3.89649L10.901 5.40736C12.0818 6.08053 12.4865 7.5711 11.8043 8.73625C11.5157 9.22944 11.0612 9.60727 10.5198 9.80389V6.72405C10.521 6.57211 10.4387 6.43154 10.3053 6.35598ZM11.4087 4.71713C11.3893 4.70535 11.3551 4.68504 11.3309 4.67122L8.7074 3.17619C8.57441 3.09941 8.40973 3.09941 8.27633 3.17619L5.07359 5.0011V3.73764C5.07277 3.72464 5.07894 3.71205 5.08923 3.70392L7.7411 2.19426C8.92231 1.52191 10.4325 1.92207 11.1135 3.08803C11.4013 3.58042 11.5054 4.1569 11.4078 4.71713H11.4087ZM4.47084 6.96902L3.36167 6.33729C3.34973 6.3316 3.34191 6.32023 3.34026 6.30723V3.28507C3.34109 1.93954 4.44737 0.849141 5.81097 0.849953C6.38779 0.849953 6.94607 1.04983 7.38949 1.41384C7.36932 1.4244 7.33474 1.4435 7.31168 1.45731L4.68822 2.95234C4.554 3.0275 4.47166 3.16807 4.47248 3.32041L4.47084 6.96821V6.96902ZM5.07318 5.68768L6.49977 4.87476L7.92637 5.68728V7.31272L6.49977 8.12523L5.07318 7.31272V5.68768Z" fill="white"/>
</svg>
