<svg width="23" height="23" viewBox="0 0 23 23" fill="none" xmlns="http://www.w3.org/2000/svg">
<path d="M17.1104 10.2038C17.3924 9.36855 17.2953 8.4536 16.8443 7.6939C16.1661 6.52866 14.8026 5.92917 13.471 6.21128C12.8786 5.55277 12.0275 5.17828 11.1353 5.18365C9.77413 5.18058 8.56643 6.04531 8.14768 7.32325C7.27327 7.49995 6.51851 8.04002 6.07684 8.80548C5.39355 9.96765 5.54932 11.4326 6.46218 12.4292C6.18017 13.2644 6.27728 14.1794 6.72827 14.9391C7.40651 16.1043 8.76998 16.7038 10.1016 16.4217C10.6936 17.0802 11.5451 17.4547 12.4374 17.4489C13.7993 17.4524 15.0073 16.5869 15.4261 15.3078C16.3005 15.1311 17.0553 14.591 17.4969 13.8256C18.1794 12.6634 18.0229 11.2004 17.1104 10.2038ZM12.4381 16.6475C11.8931 16.6482 11.3652 16.46 10.9469 16.1154C10.9659 16.1055 10.9989 16.0875 11.0203 16.0744L13.4955 14.6639C13.6221 14.593 13.6998 14.46 13.699 14.3162V10.873L14.7451 11.469C14.7564 11.4744 14.7638 11.4851 14.7653 11.4974V14.3488C14.7638 15.6168 13.7231 16.6448 12.4381 16.6475ZM7.43331 14.5381C7.16023 14.0728 7.06195 13.5274 7.15557 12.998C7.17383 13.0088 7.20607 13.0283 7.22899 13.0414L9.7042 14.4519C9.82967 14.5244 9.98505 14.5244 10.1109 14.4519L13.1327 12.7301V13.9222C13.1335 13.9344 13.1276 13.9463 13.1179 13.954L10.6159 15.3795C9.50143 16.0127 8.07776 15.6363 7.43331 14.5381ZM6.78188 9.20679C7.0538 8.7407 7.48304 8.38423 7.99424 8.19909C7.99424 8.22017 7.99307 8.25735 7.99307 8.28342V11.1049C7.9923 11.2483 8.06999 11.3813 8.19623 11.4522L11.218 13.1736L10.1719 13.7696C10.1614 13.7765 10.1482 13.7777 10.1366 13.7727L7.63414 12.346C6.52201 11.7105 6.14094 10.3061 6.78188 9.20679ZM15.3768 11.1804L12.355 9.45862L13.4011 8.86297C13.4116 8.85607 13.4248 8.85492 13.4364 8.85991L15.9389 10.2854C17.0529 10.9205 17.4348 12.3269 16.7911 13.4262C16.5188 13.8915 16.09 14.248 15.5791 14.4335V11.5277C15.5803 11.3843 15.5026 11.2517 15.3768 11.1804ZM16.4178 9.63418C16.3996 9.62306 16.3673 9.6039 16.3444 9.59086L13.8692 8.18031C13.7437 8.10787 13.5883 8.10787 13.4625 8.18031L10.4407 9.90211V8.71003C10.4399 8.69777 10.4458 8.68589 10.4555 8.67822L12.9575 7.25387C14.072 6.6195 15.4968 6.99706 16.1393 8.09713C16.4108 8.5617 16.5099 9.1056 16.4178 9.63418ZM9.87201 11.7588L8.82553 11.1628C8.81426 11.1574 8.80688 11.1467 8.80533 11.1344V8.28304C8.8061 7.01354 9.84987 5.98475 11.1364 5.98552C11.6806 5.98552 12.2074 6.1741 12.6257 6.51754C12.6067 6.52751 12.5741 6.54552 12.5523 6.55856L10.0771 7.96911C9.95048 8.04002 9.87279 8.17264 9.87357 8.31638L9.87201 11.7588ZM10.4403 10.5499L11.7863 9.7829L13.1323 10.5495V12.0831L11.7863 12.8497L10.4403 12.0831V10.5499Z" fill="white"/>
<path fill-rule="evenodd" clip-rule="evenodd" d="M4.50051 5.18092C6.02885 3.48841 8.11869 2.407 10.3831 2.13693C12.6475 1.86685 14.933 2.4264 16.8166 3.71197C18.7001 4.99754 20.0541 6.92206 20.6277 9.12917L19.4406 9.4377C18.9416 7.51763 17.7637 5.84341 16.1251 4.72504C14.4866 3.60666 12.4982 3.11988 10.5283 3.35484C8.55845 3.58979 6.7404 4.53055 5.41083 6.00295C4.08126 7.47534 3.33022 9.37962 3.29679 11.3632C3.26335 13.3468 3.94977 15.2753 5.22896 16.7917C6.50814 18.308 8.29345 19.3095 10.2543 19.6108C12.2152 19.912 14.2188 19.4925 15.8941 18.43C17.5694 17.3675 18.803 15.7339 19.3665 13.8317L20.5425 14.1801C19.8948 16.3666 18.4768 18.2444 16.551 19.4658C14.6252 20.6871 12.3221 21.1693 10.0681 20.8231C7.81407 20.4768 5.76187 19.3256 4.29144 17.5825C2.82102 15.8395 2.03198 13.6226 2.07042 11.3425C2.10886 9.0624 2.97217 6.87344 4.50051 5.18092Z" fill="white"/>
</svg>
